{"title":"As.Above.So.Below.2014.BRRip.480p.x264.AAC-VYTO [P2PDL]","uid":11694249,"size":349025737,"categoryP":"video","categoryS":"movies","magnet":"?xt=urn:btih:8b8590f5498b7266485c74039a3f166cf965bd31&amp;dn=As.Above.So.Below.2014.BRRip.480p.x264.AAC-VYTO+%5BP2PDL%5D&amp;tr=udp%3A%2F%2Ftracker.openbittorrent.com%3A80&amp;tr=udp%3A%2F%2Fopen.demonii.com%3A1337&amp;tr=udp%3A%2F%2Ftracker.coppersurfer.tk%3A6969&amp;tr=udp%3A%2F%2Fexodus.desync.com%3A6969","seeders":9,"leechers":1,"uploader":"ValidusVyto","files":6,"time":1423650593,"description":"As.Above.So.Below.2014.BRRip.480p.x264.AAC-VYTO\n\n\nGenre: Horror | Mystery | Thriller\nIMDb: http://www.imdb.com/title/tt2870612/\n\nFormat                      : MPEG-4\nFile size                   : 326 MiB\nDuration                    : 1h 33mn\nOverall bit rate            : 490 Kbps\n\nVideo\nFormat                      : AVC\nBit rate                    : 447 Kbps\nWidth                       : 720 pixels\nHeight                      : 384 pixels\nDisplay aspect ratio        : 1.85:1\nFrame rate mode             : Constant\nChroma subsampling          : 4:2:0\nBit depth                   : 8 bits\nStream size                 : 298 MiB (91%)\nWriting library             : x264 core 142 r2479 dd79a61\n\nAudio\nFormat                      : AAC\nBit rate mode               : Variable\nBit rate                    : 40.0 Kbps\nChannel(s)                  : 2 channels\nChannel positions           : Front: L R\nSampling rate               : 48.0 KHz\nStream size                 : 26.6 MiB (8%)\nLanguage                    : English\n\nSubtitle                    : Yes(English)\n &lt;a href=&quot;\nhttp://someimage.com/pwLfWwL&quot; rel=&quot;nofollow&quot; target=&quot;_NEW&quot;&gt;\nhttp://someimage.com/pwLfWwL&lt;/a&gt; &lt;a href=&quot;\nhttp://someimage.com/6JpUYJO&quot; rel=&quot;nofollow&quot; target=&quot;_NEW&quot;&gt;\nhttp://someimage.com/6JpUYJO&lt;/a&gt; &lt;a href=&quot;\nhttp://someimage.com/09o5ULd&quot; rel=&quot;nofollow&quot; target=&quot;_NEW&quot;&gt;\nhttp://someimage.com/09o5ULd&lt;/a&gt; &lt;a href=&quot;\nhttp://someimage.com/fo48h4n&quot; rel=&quot;nofollow&quot; target=&quot;_NEW&quot;&gt;\nhttp://someimage.com/fo48h4n&lt;/a&gt; &lt;a href=&quot;\nhttp://someimage.com/J8lM8yM&quot; rel=&quot;nofollow&quot; target=&quot;_NEW&quot;&gt;\nhttp://someimage.com/J8lM8yM&lt;/a&gt; &lt;a href=&quot;\nhttp://someimage.com/n5uRoS7&quot; rel=&quot;nofollow&quot; target=&quot;_NEW&quot;&gt;\nhttp://someimage.com/n5uRoS7&lt;/a&gt;\n\n----------------------------------------------------------------------------------------------------\n\n\nEncoder Notes: Looking For Early Access To Anything You Can Provide DVDScr, R5, DVDR, BluRay, Direct\nAudio, Music Releases and Seedboxes. If You Got anything to offer please contact us.\n\nWe require dedicated servers, so as to do more and fast releases of movies.\nSupport us by sending us LC - LezHMTo2cYaiztCCcWxB4cNFVNVpWW3GSx","torrent":{"xt":"urn:btih:8b8590f5498b7266485c74039a3f166cf965bd31","amp;dn":"As.Above.So.Below.2014.BRRip.480p.x264.AAC-VYTO+%5BP2PDL%5D","amp;tr":["udp%3A%2F%2Ftracker.openbittorrent.com%3A80","udp%3A%2F%2Fopen.demonii.com%3A1337","udp%3A%2F%2Ftracker.coppersurfer.tk%3A6969","udp%3A%2F%2Fexodus.desync.com%3A6969"],"infoHash":"8b8590f5498b7266485c74039a3f166cf965bd31","infoHashBuffer":{"type":"Buffer","data":[139,133,144,245,73,139,114,102,72,92,116,3,154,63,22,108,249,101,189,49]},"announce":[],"urlList":[]}}